<?xml version="1.0" encoding="utf-8" ?>
<svg xmlns="http://www.w3.org/2000/svg" xmlns:cc="http://creativecommons.org/ns" xmlns:dc="http://purl.org/dc/elements/1.1/" xmlns:ev="http://www.w3.org/2001/xml-events" xmlns:inkscape="http://www.inkscape.org/namespaces/inkscape" xmlns:rdf="http://www.w3.org/1999/02/22-rdf-syntax-ns" xmlns:sodipodi="http://sodipodi.sourceforge.net/DTD/sodipodi-0.dtd" xmlns:xlink="http://www.w3.org/1999/xlink" baseProfile="tiny" height="8.0cm" version="1.2" viewBox="0 0 302.3622047244095 302.3622047244095" width="8.0cm">
  <metadata>
    <rdf:RDF>
      <cc:Work>
        <dc:format>image/svg+xml</dc:format>
        <dc:source>Generated with vsketch</dc:source>
        <dc:date>2023-01-19T22:11:14.084900</dc:date>
      </cc:Work>
    </rdf:RDF>
  </metadata>
  <defs/>
  <g fill="none" id="layer1" inkscape:groupmode="layer" inkscape:label="1" stroke="#0000ff" style="display:inline">
    <polygon points="181.1199,201.4698 180.5133,200.2342 179.3959,199.4305 178.0316,199.2485 176.1691,199.6656 174.9992,199.1129 172.4384,193.2475 169.1733,190.7996 168.7242,189.2438 175.3741,177.8621 180.4903,167.7542 181.325,167.0174 183.8443,166.4187 184.919,165.1741 185.0604,163.2709 183.7877,161.3922 183.5447,160.5009 183.9768,158.2348 184.4126,157.4155 185.1858,156.9025 189.2603,155.4997 195.6145,153.8293 200.1826,153.8448 202.0589,155.3178 205.6809,160.6796 208.6834,166.4484 209.6271,171.71 210.1533,177.4252 209.6333,178.4031 208.6546,178.9216 197.5011,180.0699 196.0775,181.3408 195.7834,183.2264 196.7522,184.8706 198.2666,185.5113 209.4752,184.5584 210.3772,184.7969 211.1478,185.602 212.8453,195.4101 212.8686,197.7174 212.351,198.5043 211.5179,198.9437 207.5701,198.7736 206.493,199.021 205.2531,200.1011 204.8222,201.688 205.3456,203.2469 206.3922,204.1408 211.0861,204.7188 212.3143,205.7665 212.4768,206.6694 211.7978,216.776 210.8296,222.5338 209.9233,223.6443 208.6771,223.8416 199.9741,221.4718 198.8933,221.7025 197.9831,222.3292 197.382,223.2565 197.1815,224.3433 197.6806,225.9101 198.7133,226.8202 207.1524,229.3115 208.0888,229.9272 208.4753,231.5305 206.904,236.3779 199.4744,253.6774 190.3775,268.588 182.3248,277.7434 173.8527,283.7758 167.045,286.1952 153.3811,287.6612 152.2788,287.9928 151.1203,289.1597 150.8471,291.0485 151.6275,292.4959 153.3556,293.3056 167.9006,291.8361 175.2706,289.3315 177.5717,289.1929 178.7085,288.417 179.8701,286.4872 184.2984,283.5353 185.5873,283.7167 188.5262,285.8217 189.9006,285.8963 190.9238,285.4787 191.9735,284.2129 192.1431,282.5773 191.5611,281.33 189.8281,279.6252 189.7817,277.9815 194.9558,271.9591 203.0398,258.7208 204.2062,257.8683 205.471,258.0006 206.2791,258.7408 210.7886,268.8492 209.6723,271.635 203.6825,277.0485 203.2501,278.635 203.772,280.1944 205.3366,281.2872 207.2392,281.1394 212.9224,276.3754 215.3306,275.8594 216.2687,275.2752 216.9119,274.3765 217.1622,273.3001 216.4669,270.9164 216.8822,269.0462 216.7374,267.7474 209.04,251.2339 208.0747,249.8805 207.8682,248.9963 212.2433,238.2908 214.4855,231.2107 215.4979,230.2064 216.7511,230.1361 217.7719,230.8665 220.1437,234.2823 224.2253,242.218 230.0831,249.9462 230.8896,251.6619 230.5477,259.5357 227.5919,263.6724 227.2069,264.7083 227.4282,266.3377 228.5174,267.5696 230.1075,267.9887 231.6625,267.4538 235.6405,262.4946 237.9975,261.6261 239.0893,260.3965 239.3439,259.0438 239.0644,257.9746 238.397,257.0938 236.9465,256.102 236.5109,255.1123 236.6655,250.372 237.4115,249.096 238.2806,248.7399 240.9029,248.7156 247.527,251.6998 248.8812,251.4537 250.1178,250.3698 250.5211,248.5045 249.8427,247.0065 243.681,243.6867 242.5398,241.9684 241.4161,241.1735 240.3277,240.9822 239.2489,241.2221 237.578,242.7402 236.6979,243.1063 233.1402,243.3859 231.9119,242.9194 229.0374,239.1893 225.0702,231.4647 221.433,226.212 217.1653,221.9776 216.9571,220.9071 217.4461,217.279 218.6225,198.8004 219.485,197.4397 220.3537,197.151 221.4217,197.3869 233.4854,206.2005 239.6389,212.2203 254.1292,227.6519 255.1054,228.3411 257.0159,228.8272 257.737,229.3526 258.1621,230.8662 256.7452,236.9378 257.2912,238.4889 258.6069,239.4752 260.2489,239.5643 261.6637,238.7262 262.2367,237.7812 264.3234,230.281 265.0439,229.7012 266.812,229.4255 268.0031,228.7357 269.1419,226.5251 275.0329,219.8392 275.3027,218.4895 274.75,216.9408 273.6868,216.0666 272.0605,215.8239 270.5733,216.5257 264.6492,223.0144 263.107,223.9927 261.976,224.1557 257.7075,223.058 246.4773,211.2788 246.1802,210.2591 246.6332,207.7157 245.7088,206.0461 244.2121,205.3652 241.9419,205.7517 240.8832,205.4436 237.0663,201.7971 229.1047,195.8782 228.6093,194.5415 229.0863,192.9306 229.059,191.8258 228.0377,190.2137 227.0505,189.7169 225.6745,189.6834 223.5778,191.0438 222.4902,191.2284 218.0474,189.1465 217.42,188.1829 216.5417,182.9675 214.8105,167.9399 214.8946,167.0042 215.4188,166.2246 216.2537,165.7938 217.3625,165.7289 228.5397,166.1116 243.9132,165.6658 244.9953,165.9686 247.0111,168.8264 247.5116,170.7549 248.3601,171.8387 250.8524,172.7788 256.8606,178.0056 278.4277,191.3921 278.9133,192.7691 277.5136,202.4816 277.876,203.5256 278.6104,204.3514 280.4312,204.9227 281.9847,204.3834 282.9767,203.072 284.9849,190.7284 285.0211,189.1603 289.3728,181.3313 289.6127,179.9759 289.1853,178.6676 288.4259,177.8646 287.4171,177.4134 286.3124,177.3826 285.28,177.7768 284.3026,178.8097 281.0414,184.4468 280.0982,185.0319 278.9893,184.9865 260.0418,173.3015 254.3704,168.2975 253.9251,167.4857 253.9189,166.5599 254.9507,165.2999 257.4579,164.6068 266.8875,160.8088 278.41,153.9575 279.3425,154.0541 281.1282,155.3601 286.5205,157.4208 287.0416,158.5438 287.1303,162.9047 287.5587,163.9235 288.3444,164.7007 289.6428,165.1574 291.0032,164.9481 292.2687,163.8981 292.7254,162.5997 292.7024,155.3671 292.1706,151.8211 291.2422,150.805 289.9443,150.3465 288.845,150.4593 287.3803,151.1776 286.2987,151.1392 285.2697,150.4656 284.8737,149.4604 285.0931,148.4026 286.2161,146.6603 287.796,139.6758 288.2808,138.7887 289.8248,137.4974 290.3405,136.2213 289.9737,133.9862 290.4582,125.8215 289.6504,124.3892 288.183,123.6471 286.3021,123.9699 285.0529,125.4126 284.2726,133.6866 283.0506,136.2163 281.0712,137.305 280.2361,138.3991 280.0523,140.0331 281.1326,142.0613 281.232,142.9327 280.8036,144.5842 279.1523,146.6294 264.3429,155.7256 255.3388,159.3283 252.3037,159.9282 249.4199,159.9979 247.6004,159.9575 246.6532,159.4628 246.0931,158.356 245.6354,149.9272 244.4404,148.4392 242.8496,148.0228 241.0788,148.7345 240.2186,150.1359 240.4024,158.3739 240.1231,159.2544 239.2937,159.9824 228.4978,160.4412 217.561,160.0598 212.6461,160.1816 211.4671,159.4009 207.0553,152.4637 203.5583,148.9785 203.2803,147.3737 204.95,144.1475 208.53,138.1757 211.4172,134.0219 217.4999,123.7374 219.5599,119.5965 220.3501,118.8468 229.3719,117.6222 230.5064,118.5633 231.4459,121.6666 232.0441,122.5959 233.2124,123.3236 234.8565,123.3518 236.0491,122.6645 236.8489,121.2277 236.8678,120.1228 236.0189,116.7981 236.6997,115.3666 250.8811,108.3812 251.9663,108.2066 252.8202,108.5492 253.4112,109.2544 260.7994,124.3581 262.3965,125.4028 264.2938,125.1972 265.6299,123.8346 265.7984,121.9337 258.2254,106.1889 258.0545,105.1002 258.7947,103.8503 268.9719,96.2475 269.813,95.8941 271.354,96.3451 275.2119,100.4891 280.7837,109.5849 281.5592,110.4356 282.8354,110.9512 284.4598,110.6957 285.6685,109.5808 286.0541,107.9822 285.6208,106.6279 279.745,97.0485 274.8722,91.6745 274.7386,89.2414 274.0737,87.2167 274.2477,85.8232 274.037,84.7384 273.4272,83.8167 271.8438,82.6635 268.8054,77.9718 268.6021,77.2244 268.7807,75.5105 268.4653,74.4513 267.3085,73.2826 265.6974,72.9536 264.399,73.4106 263.4695,74.4257 262.4803,76.779 262.0313,79.217 262.6652,80.7343 264.7775,82.2146 267.5482,86.4897 268.3055,88.5615 268.2146,89.3154 267.7003,90.1089 253.1388,100.9677 234.8885,109.887 232.2099,110.8945 225.1432,112.4769 223.607,111.9425 223.0549,110.4127 224.7054,101.0629 225.9566,100.1063 228.4422,100.3097 229.764,99.9258 230.7487,98.9641 231.1638,97.6518 231.0146,96.5568 230.2635,95.4033 229.0574,94.7402 226.504,94.2299 225.7966,93.6271 225.4621,92.76 227.0829,71.8283 227.6615,68.0087 228.6982,67.2446 236.2221,65.8029 238.2287,65.0033 239.3364,65.1942 241.4557,66.6332 243.3533,66.4304 244.41,65.5485 244.8743,64.5456 244.9194,63.4413 244.3234,61.5682 244.6025,60.5377 247.6597,57.6786 248.4943,57.2423 250.1084,57.6091 255.1349,62.5216 256.3837,63.1003 257.7579,63.022 259.1179,62.0977 259.6967,60.8489 259.6184,59.4747 258.87,58.2655 251.098,50.6144 248.7144,49.331 243.1726,42.8483 242.2432,42.2503 241.1557,42.0535 239.8265,42.411 238.9845,43.1267 238.4176,44.381 238.4368,45.486 239.075,46.7567 243.4012,51.9 243.6392,52.9509 243.2642,53.9609 239.2048,57.6541 234.8559,60.2275 229.1775,61.3631 227.9219,61.0244 227.2392,60.1355 224.1525,52.0721 218.8745,43.8976 218.5693,42.8398 218.9054,41.7914 219.5991,41.1846 227.2538,38.1726 228.2265,37.5571 228.8577,36.65 229.0938,35.5703 228.485,33.7617 227.1353,32.8224 225.7621,32.7288 216.6303,36.2402 215.2257,36.0922 214.1388,34.8754 213.9328,33.6198 214.4342,32.6449 216.8118,30.9363 217.6136,29.8176 217.7482,28.1788 216.9496,26.7413 215.7577,26.053 214.382,26.0077 210.6059,28.3124 209.0078,28.2716 205.8283,25.3489 205.4913,24.4967 205.4117,22.8189 204.5187,21.4381 203.2834,20.8311 200.598,20.7326 195.341,16.6517 194.0465,16.0633 192.4139,16.2596 191.1655,17.3299 190.7221,18.9133 191.2331,20.4763 197.4092,25.4955 198.8875,28.0222 201.4324,29.0607 206.4864,33.8032 211.2635,40.723 212.445,43.5669 212.3316,44.6868 211.7573,45.434 201.837,51.8484 201.1678,53.3504 201.5825,55.2132 203.0847,56.3901 204.9926,56.3469 214.3969,50.4938 215.827,50.3847 216.7217,51.0034 219.1487,54.7483 222.0371,62.4299 221.5672,69.7794 220.354,72.415 221.1162,75.358 220.0515,88.7985 219.7725,89.6472 219.1348,90.2728 218.281,90.5356 206.8407,90.2629 205.4419,91.1275 204.7358,92.9004 205.157,94.4899 206.6486,95.6803 217.8568,96.2387 219.0329,97.0909 219.2922,98.3429 217.3916,109.7672 215.4719,114.838 214.9039,115.559 213.2769,116.2248 212.2761,117.1698 211.8309,118.7527 212.3112,120.5071 212.1607,121.6098 206.5355,131.1346 203.7561,135.1166 200.1256,141.1662 199.4601,141.8247 198.1832,142.0561 197.0581,141.4095 191.3167,133.82 180.5181,121.3812 180.1408,119.9507 181.108,117.086 181.3519,112.8464 181.6384,111.9854 182.8027,111.1556 186.7369,110.9575 187.7818,110.5975 188.7665,109.6358 189.1849,108.0456 188.8009,106.7238 187.5956,105.6052 186.5269,105.324 182.4994,105.4234 181.6688,105.0765 181.0928,104.3847 180.2811,96.9961 177.4432,81.0793 177.7757,80.1986 178.4917,79.5876 185.2187,77.5812 186.1878,76.2527 186.2554,74.6097 185.3989,73.206 183.9069,72.5148 177.0418,74.0289 176.1303,73.8503 175.4141,73.2589 171.8106,62.9007 172.1748,61.6994 173.509,60.6263 174.1116,59.6999 174.3137,58.6134 174.0847,57.5323 173.4594,56.6211 172.533,56.0185 169.9975,55.9649 168.8661,55.3761 164.1864,47.0736 163.9217,46.1748 164.2145,45.0947 166.9943,41.5127 167.9994,39.7436 169.0383,39.3143 171.1378,39.7038 172.2255,39.508 173.3458,38.7084 173.9569,37.4751 173.9144,36.0993 173.4113,35.1153 172.57,34.3988 170.8537,33.6354 170.1923,32.3616 174.2451,12.1692 174.1438,11.0687 173.6291,10.0907 172.7793,9.3842 171.7238,9.0567 169.8697,9.5085 168.7231,11.0341 164.0627,33.5919 162.0696,38.5931 160.6835,39.4493 159.1464,38.909 156.9414,36.2906 144.4141,24.5696 143.9107,23.791 143.8382,22.8667 144.2141,22.0192 151.8771,13.8337 152.1756,12.7696 152.0441,11.6723 151.3118,10.5069 150.3802,9.9124 149.0148,9.7391 147.7288,10.23 142.0187,16.1037 141.0421,16.6455 139.93,16.5412 139.0711,15.8272 138.7705,14.9418 138.8293,13.0843 138.2126,11.8538 137.3426,11.1723 136.0002,10.8683 134.9215,11.1085 134.0168,11.7433 131.9715,15.4377 130.9394,16.114 130.05,16.1227 125.7782,14.9542 124.1221,13.5847 122.5253,13.1919 120.4185,13.8901 111.4627,14.3551 110.1303,15.3188 109.5545,17.1383 110.0899,18.6931 111.6639,19.7722 121.1419,19.5833 130.9534,22.1582 136.5114,25.0054 152.883,40.2566 155.9762,44.0219 156.4447,45.0642 156.3551,45.9936 155.8315,46.7666 155.0017,47.1947 147.0841,48.165 133.1436,45.3139 132.0814,45.6188 131.2167,46.307 130.6812,47.2738 130.5931,48.6474 131.3465,50.109 132.5164,50.8342 144.7071,53.5019 145.4312,54.0503 146.5831,56.0084 148.0676,56.7157 149.1715,56.6646 150.1719,56.195 150.9164,55.3783 151.6001,53.8849 152.6549,53.2271 159.5938,52.343 160.4786,52.5332 161.1734,53.113 164.7537,60.1047 171.0808,78.5242 173.4864,91.0236 173.1871,92.0479 171.4432,93.937 171.2547,95.5705 172.2083,97.2236 174.5347,98.5793 175.0134,100.6853 175.6357,111.8893 175.3608,112.7591 174.5477,113.4846 173.6524,113.6589 172.6264,113.2914 160.9146,104.0302 147.9466,95.2521 147.4183,94.2741 147.4667,93.3447 149.6581,89.9604 149.9898,88.9062 149.6855,87.2902 148.7717,86.2609 147.2031,85.7674 145.8646,86.0881 145.0031,86.7804 142.5526,90.1924 141.5223,90.5997 140.608,90.4437 127.0055,82.6848 108.7065,70.2058 108.3424,69.3735 108.3322,66.835 107.3722,59.7459 100.8675,37.1337 101.1696,35.7185 103.2745,33.7572 103.4888,31.8609 103.0307,30.8552 102.2226,30.1013 100.9113,29.6829 98.5295,29.785 97.7717,29.2575 96.8208,27.9338 96.5375,26.347 97.6632,24.5856 97.8884,23.2277 97.2853,21.698 95.9339,20.7611 94.0265,20.8221 92.0193,22.1579 90.2991,22.4933 86.1088,24.1475 85.0288,25.3875 84.8198,27.0185 85.3715,28.2795 86.7114,29.2327 87.8076,29.3732 89.6935,28.9527 90.7576,29.336 93.9897,33.8215 101.8127,60.914 102.0893,63.2224 101.4235,64.539 100.5797,64.9475 99.6435,64.9003 90.7613,61.2683 90.0252,60.661 89.0777,58.9319 87.9145,58.196 86.5418,58.0953 84.7914,58.8913 83.8312,58.9377 72.3474,55.2463 71.5449,54.7363 71.0388,53.5202 71.6767,43.4421 74.6092,37.7444 74.8227,36.6601 74.605,35.5766 73.9892,34.6589 73.0691,34.0467 71.7072,33.8474 70.6503,34.1703 69.7974,34.8731 67.0903,39.5378 66.2669,39.9329 63.7649,40.2066 62.8509,40.8279 62.2443,41.7516 62.0531,43.1147 62.5272,44.4069 63.3148,45.1821 64.9648,45.9011 65.6789,46.979 65.424,52.1877 64.9549,53.16 58.38,56.0355 56.9503,56.3132 55.5597,55.5683 54.7719,52.9675 53.8747,51.9236 52.3143,51.405 50.7287,51.8408 49.9269,52.6014 49.4773,53.6109 49.8651,57.3633 49.4281,58.5308 42.4457,62.5273 33.9984,69.9186 33.4124,70.8556 33.2516,72.2226 33.7542,73.5039 34.8015,74.3971 36.1462,74.6911 37.2231,74.4429 45.9784,66.9847 53.2133,63.0985 56.7234,62.2616 57.6156,62.2728 58.5319,62.818 59.7803,65.5322 60.5411,66.3337 61.8246,66.831 63.1909,66.6645 64.3174,65.8737 64.9381,64.6452 64.9669,63.5404 64.2648,61.3288 64.4207,60.4273 65.1324,59.5977 66.1844,59.301 84.7285,65.194 91.6231,67.6605 92.2869,68.5381 92.3492,69.6367 89.3653,76.65 89.9305,78.4728 91.2573,79.4443 92.6279,79.5708 94.11,78.8586 97.5369,72.0948 98.5581,71.3841 99.7999,71.4623 109.1984,77.2221 120.9041,85.432 121.5917,86.2569 121.5515,87.8392 113.1193,101.6086 113.0934,103.5168 114.055,104.8507 115.8735,105.4294 116.9491,105.1755 117.8456,104.5292 126.4067,90.8 127.4432,90.1119 128.8443,90.299 137.9152,95.4467 150.1834,103.6194 150.5857,104.434 150.5615,105.3421 148.3843,108.9887 148.0936,110.0549 148.334,111.4101 149.4127,112.6512 150.9992,113.0838 152.3243,112.7117 153.1584,111.9867 155.2919,108.77 156.1029,108.3538 157.0144,108.3656 163.1009,112.7794 167.9595,116.7799 168.3247,118.0292 167.9206,119.0756 160.1688,127.2579 159.8725,128.8753 160.7144,130.5879 162.4517,131.3777 164.0595,131.0325 171.9026,123.1404 172.9389,122.7049 174.0393,122.935 180.828,130.2301 181.1585,131.073 181.0839,132.9758 181.6601,134.2258 182.7575,135.0566 184.7456,135.3341 185.5687,135.8035 191.1164,142.8419 193.4643,146.459 193.4297,147.5626 192.7843,148.4584 176.149,154.1497 172.5914,154.9803 158.995,156.9766 148.1616,157.8163 147.2587,157.6586 146.3383,156.7823 141.5105,147.1239 141.6221,145.8263 142.9301,144.3812 143.4035,143.0888 143.0948,141.4736 142.1782,140.4469 140.3305,139.9693 137.7389,141.0404 136.6151,141.018 123.47,134.0482 122.5954,132.6848 123.1131,130.3518 122.974,129.2555 122.2337,128.0952 121.2979,127.5071 119.9313,127.3433 118.8832,127.6936 118.0488,128.4183 117.0481,130.0495 115.4683,130.4722 94.4764,122.2698 89.4122,120.0016 88.8476,119.039 88.9246,117.9256 92.9401,109.6998 92.7427,108.0673 91.6716,106.8196 89.8106,106.397 88.1039,107.2509 83.6682,115.7148 82.8127,116.4369 81.8859,116.5768 73.4627,113.0888 54.3843,103.7048 53.5814,102.6977 53.6103,101.41 59.9139,88.6908 59.8903,87.5859 59.4457,86.5741 58.6477,85.8096 57.6179,85.4085 55.9853,85.6046 54.7367,86.6747 48.3061,99.3137 47.3695,100.1938 46.0866,100.2713 34.2954,96.7869 33.3622,95.977 33.1119,94.9425 33.484,87.3842 34.4086,85.6191 34.5861,84.2541 33.7392,82.5439 31.9536,81.7531 29.6192,81.9169 27.833,83.2604 27.1761,84.1491 26.9375,85.7761 27.7627,87.9849 27.3547,94.925 26.8412,95.6913 25.4489,96.6295 22.6799,96.6735 21.1121,97.7614 20.6077,99.0422 20.7237,100.7706 20.4878,101.5156 15.7189,107.7038 15.7082,109.3481 16.835,110.8883 18.4054,111.3759 20.2064,110.7447 26.0302,103.5388 29.0456,101.3798 29.9395,101.4223 47.053,106.4733 68.0125,116.7131 68.7222,117.3245 68.982,118.9505 64.7326,129.3882 65.013,131.2759 66.176,132.4384 68.0638,132.7181 69.7005,131.7367 74.1236,121.4013 75.0742,120.5437 76.3534,120.489 89.3584,126.3315 90.1212,127.3784 90.3074,130.144 91.6247,131.5249 92.6901,131.8186 93.7868,131.6822 94.7478,131.1366 96.0886,129.7072 97.661,129.6228 118.1877,137.7743 126.1144,141.6898 134.3591,146.3056 135.1022,147.0916 139.5352,155.8825 139.5812,157.4864 138.8778,158.3178 138.0164,158.6157 107.3932,161.558 106.5438,161.1889 105.9043,160.2859 104.7297,152.7343 103.5407,151.5983 101.921,151.3144 100.4166,151.9781 99.5344,153.3658 100.1888,160.8486 99.9069,161.7117 99.255,162.3437 96.3881,162.7282 85.6989,162.9794 81.3746,162.8012 80.3674,162.3293 79.7651,161.1878 79.984,153.56 79.0218,152.2265 77.203,151.6488 75.6476,152.1825 74.6509,153.4904 74.0554,160.9224 73.1824,162.2333 72.3324,162.51 60.9968,161.8566 51.7361,159.9008 48.8637,158.705 48.3746,157.7549 48.3939,156.1124 47.3572,151.5952 47.61,150.7296 48.7246,149.5853 49.2239,148.5994 49.3078,147.4974 48.9637,146.4472 47.7755,145.3105 45.5568,144.9813 44.7191,144.5384 35.9461,136.105 35.0073,133.8654 33.9929,132.9351 32.382,132.6047 30.4999,133.3157 29.5965,133.32 17.1585,129.0159 16.1844,127.9838 16.0582,126.0323 15.484,124.7815 14.6377,124.0707 13.3065,123.721 11.5024,124.3434 10.5733,125.7002 10.0046,130.4914 10.2574,132.1491 9.6481,134.8067 9.9283,135.8758 10.5963,136.7562 11.5504,137.3139 12.6452,137.4642 13.7143,137.184 15.5529,135.3041 16.9149,134.9759 29.5897,139.326 32.645,140.8212 40.2401,148.119 40.8396,149.238 41.9869,153.9616 41.4866,155.3344 39.9695,155.9366 31.9444,154.5761 30.091,153.3507 28.7325,153.1291 27.6704,153.4346 26.0599,154.6381 19.5658,156.3041 18.4365,155.7499 14.0042,150.462 12.4349,149.9707 10.6324,150.5975 9.6368,152.2256 9.7834,153.8634 14.2807,159.6575 14.582,160.5521 14.2041,161.9064 12.233,163.4074 11.6228,164.9344 11.8418,166.2933 13.1332,167.913 13.3822,168.6423 13.4569,173.3086 12.4918,175.1592 12.3277,176.2521 12.7248,177.57 13.6963,178.545 15.0127,178.947 16.6086,178.5504 19.0055,175.5031 19.0326,166.895 20.2703,162.4622 21.1896,161.8826 28.5227,159.858 38.7195,161.4843 41.2615,162.3503 42.0763,163.7638 41.4384,166.3343 41.6053,167.7006 42.3966,168.8268 43.6254,169.447 44.7302,169.4754 45.9891,168.919 46.7119,168.083 47.6924,165.7695 49.1837,165.1207 60.0166,167.4439 63.793,167.899 64.7101,168.5308 65.0895,169.3825 65.0156,170.3119 64.5064,171.0928 58.009,176.5203 39.7756,186.6722 22.5189,193.577 21.2578,193.3746 19.8342,191.887 18.8421,191.3999 17.7392,191.3297 16.4601,191.8378 15.706,192.6458 15.2873,193.9569 16.1242,196.794 16.0715,198.7317 17.9423,203.1938 19.373,204.4568 21.0114,204.5966 22.4514,203.8025 23.2075,202.3423 23.2928,199.993 24.3155,199.0046 39.4323,192.9309 40.6811,192.9945 42.9153,194.208 44.7824,193.8134 45.8721,192.5819 46.1601,190.2528 46.9001,189.223 60.7768,181.4913 62.9301,179.9391 64.2295,179.8089 66.5962,180.9593 68.4566,180.5339 69.254,179.7687 69.7444,178.4826 69.6588,177.3808 68.9727,175.8814 69.0574,174.7769 71.8808,170.7142 72.5083,169.0601 73.3763,168.3584 86.8419,168.6346 89.4713,169.5551 90.5576,169.3521 92.2523,168.5095 100.2827,168.2017 101.4363,168.6764 102.0033,169.5893 101.9809,170.6637 101.3187,171.7498 94.1825,179.6298 86.2349,187.1079 66.4229,206.8394 53.3268,219.1272 51.9474,219.3953 48.12,217.9598 30.548,214.5744 29.1277,214.6437 27.9514,215.3584 27.3429,216.281 27.1492,217.6437 27.6207,218.9368 28.6461,219.855 43.7587,222.9028 44.9735,224.0156 45.0602,225.1316 44.5003,226.1009 36.3644,232.247 35.5931,233.1014 35.2039,234.4217 35.4831,235.7695 36.3647,236.8266 37.6405,237.3432 38.7438,237.2803 39.7775,236.7738 49.287,229.6038 50.5866,227.9061 51.8747,226.8269 55.1146,224.8943 56.6839,225.3249 63.5971,232.4193 65.4768,232.7491 66.947,232.0125 67.7602,230.5833 67.5301,228.6888 61.1398,221.7181 60.8495,220.6583 61.1979,219.6162 68.1469,213.0549 69.1723,212.7605 71.5764,213.165 73.0597,212.4552 73.9516,210.7681 73.5887,208.4944 74.0194,207.2889 89.8762,191.5371 90.9624,191.2275 92.0311,191.5928 96.0206,195.9184 96.9682,196.4871 98.6105,196.5688 100.0214,195.7242 100.7254,194.2381 100.485,192.6114 96.2787,187.7668 95.9288,186.9357 96.0039,186.0371 103.5536,177.7967 104.6078,177.43 106.7495,177.6608 108.4068,176.7147 109.0877,174.9319 108.3002,172.6353 108.2957,171.7542 110.2207,167.7183 110.885,167.0437 120.6964,165.7867 157.0497,162.865 158.1379,163.106 159.7078,164.2621 161.0727,164.4397 162.3602,163.9529 163.6247,162.4614 164.4413,162.0141 174.4813,160.384 175.4093,160.5155 176.16,161.0767 176.5487,161.9296 176.4798,162.8643 173.1521,169.9026 167.982,179.4099 164.6962,184.4198 163.8118,184.7514 160.5177,184.8004 141.7391,186.9566 140.641,187.302 139.7982,188.0168 139.2299,189.2704 139.3196,190.6439 140.0462,191.8129 141.2381,192.5014 142.3858,192.5889 157.6856,190.868 159.0768,191.6597 159.3614,193.2349 153.2781,202.9066 141.0806,218.567 139.9894,218.8068 139.1057,218.5003 129.0545,210.3917 127.1659,210.1178 125.5322,211.1043 124.8952,212.9032 125.5439,214.6979 135.5655,222.952 136.0821,223.8868 136.0638,224.7805 135.0264,226.2388 131.6254,229.6398 127.6692,233.064 126.8299,233.396 124.9102,233.3257 123.4562,234.0937 122.7428,235.2708 122.6208,236.8954 122.2588,237.7472 117.561,242.5058 115.6105,244.0848 113.2127,245.5181 112.2977,245.541 111.4793,245.1314 103.7918,233.2806 102.7032,232.4382 101.3461,232.2085 100.2822,232.5076 99.2437,233.4109 98.8,234.4231 98.8394,235.7989 106.5069,248.0287 106.7909,249.2705 106.2223,250.4104 101.6069,254.0442 98.1673,255.5679 80.9793,258.839 79.4796,258.4827 78.6491,257.7781 78.3454,256.7321 78.5832,253.7536 77.8854,252.5672 76.7107,251.8498 75.3365,251.7709 74.0874,252.349 73.2584,253.4477 72.4882,255.7246 70.9697,256.3832 65.0765,254.3388 55.3335,248.6459 54.2395,248.4896 53.1689,248.7639 52.2849,249.427 51.7218,250.378 51.7321,252.2864 52.9895,253.7806 62.6515,259.4842 70.1595,262.3679 70.7512,263.5226 70.7216,266.0779 71.2611,267.0424 72.1286,267.7271 73.1921,268.0276 74.5495,267.7996 75.6392,266.9587 76.4045,265.0804 77.0323,264.3798 78.1101,264.062 79.2866,264.4205 80.0252,265.4133 81.6074,272.4958 82.4432,273.5894 83.6958,274.1598 84.8008,274.1439 85.8156,273.7063 86.9302,272.1572 87.0226,271.0559 85.8544,265.3418 86.0722,264.438 86.6947,263.7475 100.7083,260.6941 102.1294,260.9892 102.8791,262.0239 102.9338,264.0587 101.5398,276.2518 100.7169,277.442 98.7179,277.9928 97.8196,278.6365 97.151,279.8397 97.1285,281.2159 97.7575,282.4402 98.6342,283.113 100.9109,283.6492 102.4204,284.7342 106.3564,286.3061 108.0393,286.4548 109.6596,285.4465 110.2724,283.6392 109.5996,281.8533 107.4982,280.4992 106.9429,279.3191 108.4283,266.0738 109.6044,263.4807 107.9693,257.55 108.1764,256.2829 112.1319,253.0009 119.8198,248.3219 121.2151,248.6954 127.7025,254.5776 129.3251,254.844 130.8223,254.1639 131.6893,252.7667 131.5316,250.8648 125.4383,244.8208 125.0844,243.7841 125.2756,242.8874 135.5377,233.745 139.1631,230.1166 142.5553,226.1346 143.5827,225.7021 144.5053,225.842 145.2485,226.4063 145.6311,227.2574 145.786,232.7269 144.8092,251.4413 144.2298,254.083 137.7555,271.551 134.08,279.8036 133.4641,280.5639 132.3705,281.0022 127.705,281.053 125.367,279.3868 123.4631,279.2553 121.908,280.3615 120.3809,283.648 120.6764,286.9949 121.2615,287.9325 122.1608,288.5748 123.2374,288.824 124.3275,288.6423 126.8236,286.8093 131.5506,286.7313 132.6501,287.3625 134.158,290.0494 135.9004,290.8279 137.5059,290.4722 138.6432,289.2846 138.929,287.6653 138.1316,285.4518 138.2211,284.3488 142.0764,275.8728 144.4704,274.4918 145.2629,273.3664 145.4312,272.0003 144.6875,270.1598 144.6848,269.2051 148.8182,258.0445 149.585,257.2302 151.9138,256.4097 152.6425,255.5789 152.9979,254.5324 152.7302,252.91 150.9179,251.1175 150.5705,250.1054 151.4525,233.0221 151.3758,228.1443 152.1524,225.4856 151.8617,224.4194 150.4487,222.7601 149.7654,220.7179 148.9339,219.5125 148.8357,218.2503 156.6232,207.8637 159.1371,206.147 159.6068,205.1466 159.8809,203.2553 164.139,196.4589 165.028,195.814 166.3025,195.8284 167.8351,196.9558 171.1947,205.2914 171.046,213.1237 172.1978,221.2585 177.4418,246.2046 178.3697,247.5622 179.8954,248.1754 181.5048,247.8377 182.6552,246.6627 182.908,244.7263 177.8138,220.4544 176.7229,212.8108 177.0585,206.2656 177.7316,205.4535 179.7218,204.541 180.5658,203.8275 181.1361,202.5748"/>
  </g>
</svg>
