<?xml version="1.0" encoding="utf-8" ?>
<svg xmlns="http://www.w3.org/2000/svg" xmlns:cc="http://creativecommons.org/ns"
  xmlns:dc="http://purl.org/dc/elements/1.1/" xmlns:ev="http://www.w3.org/2001/xml-events"
  xmlns:inkscape="http://www.inkscape.org/namespaces/inkscape" xmlns:rdf="http://www.w3.org/1999/02/22-rdf-syntax-ns"
  xmlns:sodipodi="http://sodipodi.sourceforge.net/DTD/sodipodi-0.dtd" xmlns:xlink="http://www.w3.org/1999/xlink"
  baseProfile="tiny" height="8.0cm" version="1.2" viewBox="0 0 302.3622047244095 302.3622047244095" width="8.0cm">
  <metadata>
    <rdf:RDF>
      <cc:Work>
        <dc:format>image/svg+xml</dc:format>
        <dc:source>Generated with vsketch</dc:source>
        <dc:date>2023-02-12T09:57:19.840403</dc:date>
      </cc:Work>
    </rdf:RDF>
  </metadata>
  <defs />
  <g fill="none" id="layer1" inkscape:groupmode="layer" inkscape:label="1" stroke="#0000ff" style="display:inline">
    <polygon
      points="286.4167,143.7617 288.1078,142.2954 290.4292,141.5845 290.9032,151.2324 290.4717,160.0145 288.0839,159.2873 283.6069,156.0901 282.238,154.2862 281.6844,152.0905 281.8626,150.3965 282.536,148.8319" />
    <polygon
      points="273.5616,103.6655 285.8717,114.591 288.0097,123.1264 287.8264,123.3901 269.2055,147.3158 267.8047,148.2127 265.6493,148.7082 263.1174,148.5457 261.1572,147.5882 259.4469,145.4765 258.9157,142.8115 263.9971,107.1045 265.093,104.4802 266.8119,102.9762 268.4175,102.3647 270.3419,102.2625 272.0632,102.7084" />
    <polygon
      points="267.3355,73.5401 274.3907,85.3111 274.6843,85.9318 272.9083,88.3595 271.6125,89.4484 270.053,90.1063 268.3687,90.2744 266.7099,89.9379 265.2244,89.1266 264.0445,87.913 263.0268,85.3021 260.4466,64.2515" />
    <polygon
      points="246.8042,60.3262 248.2971,62.0181 249.0117,64.1583 251.502,84.7026 251.1167,86.8929 250.286,88.3448 248.5932,89.7871 246.4758,90.4672 231.2373,90.7187 228.5887,90.1057 227.2479,89.159 226.2345,87.8678 219.4182,75.7566 219.1835,73.0641 220.2221,70.569 222.2978,68.8381 241.4183,59.5306 244.213,59.2396" />
    <polygon
      points="210.1028,47.0428 210.6482,45.5107 220.7979,30.1895 228.753,34.9576 239.7758,43.1327 240.7987,44.0597 240.6482,45.0155 239.7207,46.9866 238.5707,48.1535 220.5847,57.0561 219.0178,57.5559 216.3025,57.3399 214.4004,56.2608 210.8868,51.2155 210.0894,49.2053" />
    <polygon
      points="188.4194,37.9015 187.3714,36.5471 186.7757,34.9415 184.7638,15.6854 191.6548,17.4115 204.5761,22.0348 210.6113,24.8892 201.197,39.0107 199.4241,40.2394 196.7783,40.7084 190.35,39.1079" />
    <polygon
      points="164.7676,12.0633 173.1198,13.3022 175.5359,37.0403 175.0981,39.2417 173.4184,41.4759 166.6304,45.8992 163.9571,46.5382 161.2975,45.8446 159.2766,43.9816 151.7242,29.6465 151.0773,26.8513 151.8819,24.0974 159.2584,11.7926" />
    <polygon
      points="137.9785,32.5913 139.6054,33.1432 140.9923,34.1571 142.0118,35.5399 151.7966,54.2443 152.1885,55.8273 152.1135,57.4563 151.578,58.9966 150.6261,60.3208 148.8497,61.5644 141.8093,64.6944 139.117,65.1699 122.6157,60.8289 120.1985,59.4757 118.711,57.1387 118.5085,54.3758 125.4268,36.293 126.2457,34.8548 127.445,33.7144 130.0006,32.7242" />
    <polygon
      points="126.8052,20.9756 124.5003,19.2715 121.4654,14.6564 123.7787,14.0769 137.3537,12.0633 145.3296,11.6715 144.7893,13.8257 141.7631,18.869 140.0794,20.3753 137.9413,21.1046 129.0715,21.3801" />
    <polygon
      points="84.8659,39.5122 84.7665,36.8124 86.3502,29.1483 87.2319,27.0818 97.5452,22.0348 107.0817,18.6226 108.6433,18.7385 110.1881,19.322 111.8644,20.74 115.6268,26.8969 115.8668,28.4848 115.6518,30.0764 109.151,46.7811 107.8315,48.4875 105.4504,49.7329 103.8362,49.8934 102.2427,49.5901 87.9691,43.1192 85.8479,41.446" />
    <polygon
      points="64.3009,58.323 65.3377,57.0227 66.7072,56.0793 76.1072,51.5899 78.3141,51.4497 79.9125,51.9094 101.1695,61.5887 102.9411,62.855 104.1048,64.6957 104.4886,66.8393 103.7975,69.4623 93.867,87.6206 92.7763,88.8193 91.391,89.6605 89.2836,90.1119 83.2313,90.2066 81.6702,89.8642 79.8537,88.7607 78.8304,87.5331 63.8925,63.1517 63.5458,61.5252 63.6859,59.8681" />
    <polygon
      points="57.4433,47.5758 62.3455,43.1327 73.3683,34.9576 73.6004,34.8185 72.6109,39.0345 70.8721,41.2784 59.4149,47.0271" />
    <polygon
      points="42.9609,62.5173 47.9874,56.9714 48.8782,58.8754 49.0472,60.5303 48.7286,62.163 47.9498,63.633 33.0735,83.8 30.7799,85.3412 29.1436,85.6691 27.6249,85.5346 34.7859,73.5401" />
    <polygon
      points="54.7202,105.7847 43.529,97.2715 42.4932,95.9883 41.8705,94.4614 41.7682,92.2711 42.5047,90.2059 51.6516,77.9142 53.5331,76.772 55.1543,76.437 57.3344,76.7402 59.2347,77.8508 60.3012,79.1169 68.2657,92.0062 68.9158,93.5068 68.9775,96.2149 68.1078,98.208 62.0853,105.3412 59.6156,106.741 57.34,106.878" />
    <polygon
      points="54.078,121.2814 54.1626,127.0937 53.7539,128.7119 52.8917,130.1409 50.6651,131.778 21.0762,137.4817 18.8077,136.9687 16.3119,135.5028 15.1353,134.3498 14.3399,132.9073 14.0265,130.1971 15.0152,127.6543 28.9671,107.8559 30.1437,106.6288 31.6311,105.8057 34.4303,105.5133 36.5553,106.2827 52.395,118.286 53.4688,119.6531" />
    <polygon
      points="89.9911,132.8473 88.4021,133.2262 86.7711,133.1364 69.5388,129.6226 67.5938,128.576 65.9598,126.3628 65.5587,124.7508 65.5359,120.9444 66.2326,118.2283 78.4317,103.5961 80.086,102.2556 81.5899,101.7059 91.1027,101.5269 92.6876,102.0622 94.0473,103.0368 97.2405,107.6917 97.6582,109.4024 97.5309,111.1588 93.2682,129.3882 92.1938,131.276" />
    <polygon
      points="132.4128,121.5337 132.1783,123.6987 125.1982,140.3775 124.3245,141.8135 123.0681,142.9302 120.9922,143.7579 118.7578,143.719 107.5037,141.2239 106.0035,140.4747 104.4655,138.8607 103.7895,137.3261 103.6368,135.1019 107.3767,118.8835 108.2903,116.8648 109.4495,115.6674 110.9067,114.8588 113.0934,114.5006 128.0527,116.4959 130.0388,117.389 131.5418,118.9648" />
    <polygon
      points="146.585,123.1728 148.7988,122.7814 159.746,124.122 161.8961,124.8487 163.5889,126.3605 164.391,127.8676 164.7082,129.5452 165.4877,152.1358 164.6626,154.748 163.1712,156.3645 151.8913,163.0144 149.6892,163.5335 147.9997,163.3296 140.4239,160.3797 138.6217,158.9227 134.3111,152.2309 133.8937,150.0627 134.3363,147.8994 143.4327,126.2526 145.1211,124.0193" />
    <polygon
      points="182.1187,106.3026 182.936,94.0004 184.1097,91.3934 185.3853,90.2287 186.9525,89.5022 206.4961,83.8854 208.107,83.8156 209.6724,84.2021 211.8423,85.7597 216.7036,94.0409 217.4076,96.1392 217.3741,97.8035 216.8587,99.3863 210.157,112.5973 207.9945,114.3009 205.2846,114.785 186.8452,111.7128 184.324,110.6122 182.8708,108.9488" />
    <polygon
      points="170.8147,87.4178 171.4954,88.8418 171.7571,90.3983 170.5531,108.5478 169.5016,111.0242 167.9038,112.4773 166.4095,113.1138 164.796,113.3004 149.5603,111.4213 147.4373,110.7102 145.4364,108.7684 144.7761,107.2191 144.6001,105.5443 145.8431,78.2003 146.9354,75.5946 148.6404,74.0975 152.6255,72.4216 154.3409,72.3129 156.0099,72.7233 157.9006,74.0061" />
    <polygon
      points="203.3284,72.9433 182.6957,78.9296 179.9418,79.0278 178.3827,78.446 177.0597,77.4366 167.1177,67.2197 165.9149,65.3662 165.5321,63.749 165.6347,62.0903 166.2139,60.5326 167.2198,59.2098 181.7966,49.7299 184.6965,49.4125 196.9237,52.5971 198.3197,53.3388 199.4567,54.4372 206.0054,64.6193 206.6857,66.1316 206.8625,68.3294 206.1874,70.4284 204.7627,72.1111" />
    <polygon
      points="228.0088,103.4253 229.962,102.3277 231.6247,102.0528 247.7591,101.9199 250.2225,103.0118 251.3546,104.18 252.1083,105.6216 252.3715,108.3032 249.0897,131.0566 247.8317,133.4667 245.5964,135.014 243.4452,135.3825 241.3142,134.911 222.494,124.4273 220.9886,122.8954 220.1612,120.9133 220.1304,118.7657 220.6372,117.2321 226.9094,104.7025" />
    <polygon
      points="215.883,137.9187 218.424,136.7059 220.685,136.7204 222.2781,137.3159 245.5077,150.257 247.4759,152.0801 248.302,154.069 248.3979,155.6857 247.8127,157.7583 243.2044,165.1275 241.2669,167.0021 239.2241,167.7173 213.4303,171.4761 211.7156,171.4639 210.083,170.9397 208.6819,169.9513 206.1727,166.4579 205.503,164.3657 205.8548,161.6523 214.4722,139.6857" />
    <polygon
      points="177.5336,152.145 176.7661,149.4927 176.0092,128.2925 176.587,125.5895 177.5358,124.2161 178.8434,123.1786 180.3965,122.5669 182.0604,122.434 201.0255,125.6223 203.0157,126.6151 204.4709,128.297 205.2071,130.9673 204.8194,133.1573 196.554,154.2286 195.6061,155.5706 194.3132,156.5844 192.7839,157.1848 190.6006,157.261 180.9964,154.775 179.0029,153.8052" />
    <polygon
      points="177.6767,198.4766 164.6364,194.4035 162.345,193.0279 160.9385,190.7553 157.7815,176.704 157.816,175.063 158.3193,173.5006 160.0686,171.4195 170.7109,165.1449 172.3137,164.673 174.5313,164.8035 193.9477,170.0059 196.105,171.8755 199.8466,177.3667 200.4278,178.9266 200.4562,181.1396 199.0833,185.9797 198.4391,187.4174 197.4242,188.6223 182.3087,197.9116 180.3179,198.6542" />
    <polygon
      points="187.6503,209.135 189.4217,206.8923 197.3635,202.0678 198.9146,201.5784 200.5409,201.5495 203.0565,202.514 204.5666,204.0624 215.9107,221.3936 216.4611,222.9942 216.5144,224.686 215.5061,227.3007 214.3307,228.5186 212.8481,229.3353 197.0846,235.1255 194.3431,235.1576 192.3404,234.2443 190.0489,232.3176 188.9481,229.8987 187.1979,211.9567" />
    <polygon
      points="157.0217,206.575 158.9883,205.5318 161.7582,205.4123 172.5174,208.7723 173.9313,209.6333 175.0363,210.866 175.9507,213.4506 177.1412,226.1124 176.4887,228.7479 174.6856,230.7778 172.6858,231.6451 152.7796,235.8934 150.0546,235.2452 145.3821,232.1663 144.2738,230.9701 143.5519,229.5079 143.276,227.9008 143.226,224.8093 143.8606,222.6032" />
    <polygon
      points="132.6197,210.5084 118.7344,200.0117 117.0061,197.8563 116.4943,195.6978 116.8499,193.5082 118.0186,191.6227 134.4288,174.0693 135.7458,173.0253 137.8646,172.3158 140.0931,172.4801 143.839,174.0242 145.4334,175.5474 146.326,177.5636 150.09,194.8371 149.8642,196.5332 149.1426,198.0846 139.978,209.2835 137.8279,210.8965 135.7188,211.3523 134.1082,211.1544" />
    <polygon
      points="129.6662,222.5313 130.8441,223.7397 131.6141,225.2413 131.9345,227.9321 131.7254,229.6098 131.0308,231.1513 129.9126,232.4195 119.8048,239.2052 117.538,239.6382 115.2864,239.1318 94.6984,229.7552 93.4036,228.7298 92.2373,226.869 91.9063,224.1538 92.5913,222.0673 100.6069,207.8679 101.7833,206.6383 103.2717,205.8131 106.0735,205.5193 108.6709,206.6104" />
    <polygon
      points="124.5236,250.1366 125.7197,249.0395 135.1486,242.6406 137.266,241.978 139.4755,242.1788 144.2258,245.0531 145.9198,247.3879 152.8933,272.713 153.0912,274.4186 152.7695,276.1053 149.9225,282.1914 148.6445,283.9317 146.2921,285.2359 144.6807,285.4352 143.0788,285.1695 141.618,284.4607 122.4904,271.4692 121.3788,270.2251 120.6774,268.7113 120.5667,265.9509 123.3652,252.5629" />
    <polygon
      points="115.7202,280.6114 124.2371,286.3813 125.4601,287.5032 126.2212,288.7502 123.7787,288.3879 110.4665,285.0534 106.3147,283.5678 107.3438,281.9684 109.0275,280.7119 111.5907,279.7158 113.742,279.7645" />
    <polygon
      points="162.6639,281.8313 163.6616,280.5894 165.4509,279.4549 188.3184,272.8982 190.0441,273.0268 191.6506,273.6699 192.9883,274.7677 194.8647,277.2137 195.4056,279.8565 194.8854,283.8974 191.6548,285.0534 178.3426,288.3879 164.7676,290.4016 158.8811,290.6908 159.4103,288.6506" />
    <polygon
      points="162.8973,264.6543 161.894,262.6586 158.881,251.2781 159.3131,248.6332 160.9117,246.4823 163.3197,245.3061 180.5155,241.5618 182.0957,241.5891 183.607,242.0515 185.5208,243.3062 186.7444,244.5042 187.5544,246.0129 187.8771,247.6947 187.2947,257.3641 186.6879,259.5805 185.2511,261.374 183.2205,262.4499 168.3988,266.7334 165.6226,266.5558 164.1175,265.8092" />
    <polygon
      points="233.5468,247.1654 234.2966,249.7218 232.63,261.9412 232.0016,263.4825 230.9527,264.7748 229.5737,265.7069 227.9834,266.1982 206.3284,269.4952 204.6538,269.3342 203.1001,268.6888 200.5841,266.2534 198.9194,264.0211 198.408,261.2856 199.1765,249.5461 199.923,247.5113 200.9583,246.2524 202.8107,245.127 223.2433,237.6146 226.0523,237.6058 227.6168,238.2625 228.9169,239.3527" />
    <polygon
      points="239.0946,229.94 239.8999,228.4879 255.0381,212.2402 257.2954,210.7635 259.4375,210.4464 263.1751,211.2703 265.444,212.7383 271.4528,222.0555 267.3355,228.9248 259.1604,239.9476 257.9411,241.2928 247.045,241.7632 244.8366,241.4174 243.3631,240.6076 242.192,239.4011 239.2356,234.2688 238.7354,232.1184" />
    <polygon points="279.494,206.3638 278.3539,208.7744" />
    <polygon
      points="252.271,175.8697 252.0689,173.1331 252.8579,171.076 258.0767,162.7856 259.1569,161.5256 260.5557,160.6324 262.1532,160.1826 268.5763,160.0624 270.9899,161.0489 288.9091,173.843 288.2161,178.5143 285.8164,188.0945 268.9195,199.4882 267.2554,200.0671 265.4939,200.107 261.2856,198.852 259.9636,197.7515 259.0325,196.3052" />
    <polygon
      points="213.2793,183.3682 214.7784,182.764 236.609,179.5567 239.3936,179.8497 241.3057,181.0325 242.8113,183.3932 247.9277,198.9276 248.1325,201.6488 247.6239,203.2161 246.6862,204.5709 235.0368,217.0434 233.7005,218.0993 231.549,218.8049 229.293,218.6123 227.2923,217.5522 226.1544,216.285 218.5287,204.6694 210.9031,193.0538 210.2152,191.5818 209.9731,189.9751 210.1967,188.3657 211.0783,185.6903 212.0116,184.3708" />
    <polygon
      points="126.606,164.9096 125.6412,166.8283 105.8162,187.9209 104.3835,188.6754 102.2546,188.9979 100.159,188.5033 98.399,187.2629 93.129,181.6246 92.4467,180.1012 92.2774,177.8884 92.72,176.279 101.5883,156.2123 102.4737,154.8094 104.7155,153.2215 107.4406,152.874 121.0464,155.8284 123.4798,157.0258 125.8858,160.2511 126.7054,162.2361" />
    <polygon
      points="69.1738,172.9482 67.7574,171.2929 67.07,169.2256 64.3195,147.8065 64.6607,145.0249 65.5042,143.5573 66.7434,142.4041 68.2678,141.6682 70.5069,141.4433 87.2949,144.8391 89.2607,145.9066 90.6605,147.6515 91.2765,149.802 90.8109,152.5487 82.3181,171.7015 81.3292,172.9877 80.0166,173.9412 77.4095,174.5939 71.6426,174.0747" />
    <polygon
      points="56.1035,174.7139 55.3416,176.7593 54.2898,178.0195 46.0389,184.1079 43.9727,185.0585 41.6992,185.1205 34.9794,182.5565 33.6152,181.5727 32.3551,179.7253 26.9551,153.8533 26.8658,152.1807 27.7963,149.5679 28.9227,148.3281 30.3621,147.4715 47.4407,144.1669 49.0525,144.4032 50.9718,145.4073 52.0851,146.5965 52.8142,148.0531 56.1323,173.0727" />
    <polygon
      points="20.148,180.5418 19.1081,182.5018 17.8739,183.625 15.4656,184.7439 13.9052,178.5143 11.8915,164.9394 11.459,156.1359 12.8459,156.3627 14.3498,157.0674 15.5849,158.1777 16.4453,159.5983 20.356,178.3327" />
    <polygon
      points="18.6285,195.7079 26.1398,192.6167 28.2979,192.3897 34.5396,194.6343 35.8748,195.5842 36.8825,196.8762 37.5762,198.9416 37.4398,201.1161 30.1057,221.1163 27.7306,217.1537 21.863,204.7478" />
    <polygon
      points="42.8555,235.3546 41.4316,234.5396 40.3007,233.351 39.5575,231.8883 39.3325,229.1803 44.3891,215.1371 45.9881,212.8185 48.5057,211.5555 51.3203,211.66 53.3171,212.7223 65.5628,225.198 66.2657,226.6931 66.5076,228.3273 66.0837,230.4826 65.2409,231.9035 63.5528,233.3089 61.4571,233.9671 45.0014,235.7474" />
    <polygon
      points="68.8363,250.1517 69.1969,261.2574 68.3823,263.8094 62.3455,259.3322 52.1771,250.116 49.108,246.7299 63.1439,245.2154 65.292,245.6093 66.7169,246.4262 68.1422,248.0809" />
    <polygon
      points="80.5876,241.9051 81.5065,240.5491 83.2575,239.2536 85.3677,238.714 86.9994,238.8578 108.1373,248.3385 109.908,249.6003 111.2479,251.954 111.429,254.1207 108.9019,266.1978 107.3957,268.6005 103.7242,270.6542 102.1274,271.0008 100.498,270.8775 83.8779,263.7098 81.9999,262.376 81.0283,260.9412 80.4869,258.7023 80.0248,244.5592" />
    <polygon
      points="77.3408,219.0265 75.745,218.6105 73.9298,217.3804 55.799,199.075 54.4164,196.7788 54.1751,194.6407 54.7479,192.5667 56.0522,190.8555 62.5057,186.0872 64.0587,185.2822 66.3679,185.0112 80.3045,186.2944 82.8875,187.5336 90.516,195.4631 91.521,197.437 91.6929,199.6453 91.0055,201.751 82.6063,216.6361 80.5496,218.433 78.9888,218.9656" />
    <polygon
      points="115.6521,72.7274 117.6285,71.8824 120.3054,71.9496 130.7034,74.7824 132.1355,75.5739 133.282,76.7414 134.0472,78.1878 134.3674,79.7924 133.5172,99.5355 132.9954,101.6718 131.2758,103.8038 129.2984,104.7661 127.6547,104.9498 109.4027,102.5168 107.0648,101.3663 104.5999,98.1737 103.6285,95.5353 104.0441,92.7545 113.8512,74.7092" />
  </g>
</svg>